<svg width="40" height="40" viewBox="0 0 40 40" fill="none" xmlns="http://www.w3.org/2000/svg">
<g id="material-symbols:cancel">
<path id="Vector" d="M13.9999 28.3333L19.9999 22.3333L25.9999 28.3333L28.3333 26L22.3333 20L28.3333 14L25.9999 11.6667L19.9999 17.6667L13.9999 11.6667L11.6666 14L17.6666 20L11.6666 26L13.9999 28.3333ZM19.9999 36.6667C17.6944 36.6667 15.5277 36.2289 13.4999 35.3533C11.4721 34.4778 9.70825 33.2906 8.20825 31.7917C6.70825 30.2917 5.52103 28.5278 4.64659 26.5C3.77214 24.4722 3.33436 22.3056 3.33325 20C3.33325 17.6945 3.77103 15.5278 4.64659 13.5C5.52214 11.4722 6.70936 9.70834 8.20825 8.20834C9.70825 6.70834 11.4721 5.52112 13.4999 4.64668C15.5277 3.77223 17.6944 3.33445 19.9999 3.33334C22.3055 3.33334 24.4721 3.77112 26.4999 4.64668C28.5277 5.52223 30.2916 6.70945 31.7916 8.20834C33.2916 9.70834 34.4794 11.4722 35.3549 13.5C36.2305 15.5278 36.6677 17.6945 36.6666 20C36.6666 22.3056 36.2288 24.4722 35.3533 26.5C34.4777 28.5278 33.2905 30.2917 31.7916 31.7917C30.2916 33.2917 28.5277 34.4795 26.4999 35.355C24.4721 36.2306 22.3055 36.6678 19.9999 36.6667Z" fill="#F24E1E"/>
</g>
</svg>
